<?xml version="1.0" standalone="no"?><!DOCTYPE svg PUBLIC "-//W3C//DTD SVG 1.1//EN" "http://www.w3.org/Graphics/SVG/1.1/DTD/svg11.dtd"><svg t="1584189802272" class="icon" viewBox="0 0 1024 1024" version="1.1" xmlns="http://www.w3.org/2000/svg" p-id="1373" xmlns:xlink="http://www.w3.org/1999/xlink" width="200" height="200"><defs><style type="text/css"></style></defs><path d="M186.181818 279.272727h651.636364v46.545455H186.181818zM186.181818 418.909091h651.636364v46.545454H186.181818zM186.181818 558.545455h651.636364v46.545454H186.181818zM186.181818 698.181818h651.636364v46.545455H186.181818z" fill="" p-id="1374"></path><path d="M837.818182 46.545455c79.127273 0 139.636364 60.509091 139.636363 139.636363v651.636364c0 79.127273-60.509091 139.636364-139.636363 139.636363H186.181818c-79.127273 0-139.636364-60.509091-139.636363-139.636363V186.181818c0-79.127273 60.509091-139.636364 139.636363-139.636363h651.636364m0-46.545455H186.181818C83.781818 0 0 83.781818 0 186.181818v651.636364c0 102.4 83.781818 186.181818 186.181818 186.181818h651.636364c102.4 0 186.181818-83.781818 186.181818-186.181818V186.181818c0-102.4-83.781818-186.181818-186.181818-186.181818z" fill="" p-id="1375"></path></svg>