<?xml version="1.0" standalone="no"?><!DOCTYPE svg PUBLIC "-//W3C//DTD SVG 1.1//EN" "http://www.w3.org/Graphics/SVG/1.1/DTD/svg11.dtd"><svg t="1584189777999" class="icon" viewBox="0 0 1024 1024" version="1.1" xmlns="http://www.w3.org/2000/svg" p-id="1249" xmlns:xlink="http://www.w3.org/1999/xlink" width="200" height="200"><defs><style type="text/css"></style></defs><path d="M522.24 61.44c112.64 0 204.8 92.16 204.8 204.8s-92.16 204.8-204.8 204.8-204.8-92.16-204.8-204.8 92.16-204.8 204.8-204.8m0-51.2c-143.36 0-256 112.64-256 256s112.64 256 256 256 256-112.64 256-256-112.64-256-256-256z" fill="" p-id="1250"></path><path d="M512 471.04v51.2c71.68 0 133.12 10.24 168.96 15.36 15.36 0 30.72 10.24 46.08 15.36 10.24 5.12 15.36 5.12 25.6 10.24 163.84 76.8 220.16 209.92 199.68 307.2-10.24 40.96-35.84 92.16-87.04 97.28H153.6c-46.08 0-71.68-46.08-81.92-87.04-20.48-97.28 30.72-235.52 204.8-317.44 71.68-25.6 148.48-35.84 235.52-35.84V471.04m0 0c-76.8 0-168.96 10.24-256 40.96-337.92 158.72-276.48 501.76-102.4 501.76h716.8c179.2-15.36 220.16-353.28-102.4-501.76-5.12 0-46.08-15.36-76.8-20.48-46.08-10.24-107.52-20.48-179.2-20.48z" fill="" p-id="1251"></path></svg>